<!DOCTYPE svg PUBLIC "-//W3C//DTD SVG 1.1//EN" "http://www.w3.org/Graphics/SVG/1.1/DTD/svg11.dtd">
<!-- Uploaded to: SVG Repo, www.svgrepo.com, Transformed by: SVG Repo Mixer Tools -->
<svg width="800px" height="800px" viewBox="0 0 512 512" version="1.1" xmlns="http://www.w3.org/2000/svg" xmlns:xlink="http://www.w3.org/1999/xlink" fill="#000000">
<g id="SVGRepo_bgCarrier" stroke-width="0"/>
<g id="SVGRepo_tracerCarrier" stroke-linecap="round" stroke-linejoin="round"/>
<g id="SVGRepo_iconCarrier"> <title>new-indicator-filled</title> <g id="Page-1" stroke="none" stroke-width="1" fill="none" fill-rule="evenodd"> <g id="scheduler" fill="#FFFFFFFF" transform="translate(85.333333, 85.333333)"> <path d="M170.666667,1.42108547e-14 C264.923264,-3.10380131e-15 341.333333,76.4100694 341.333333,170.666667 C341.333333,264.923264 264.923264,341.333333 170.666667,341.333333 C76.4100694,341.333333 2.57539587e-14,264.923264 1.42108547e-14,170.666667 C2.6677507e-15,76.4100694 76.4100694,3.15255107e-14 170.666667,1.42108547e-14 Z M192,85.3333333 L149.333333,85.3333333 L149.333333,149.333333 L85.3333333,149.333333 L85.3333333,192 L149.333333,191.999333 L149.333333,256 L192,256 L191.999333,191.999333 L256,192 L256,149.333333 L191.999333,149.333333 L192,85.3333333 Z" id="Combined-Shape"> </path> </g> </g> </g>
</svg>